# xmcd
#
# Track frame offsets:
#	150
#	21600
#	42693
#	64090
#
# Disc length: 1077 seconds
#
# Revision: 0
# Processed by: cddbd v1.5.1PL0 Copyright (c) Steve Scherf et al.
# Submitted via: audiograbber 1.83.01
#
DISCID=39043304
DTITLE=Cassidy - I´m a Hustla
DYEAR=2005
DGENRE=Rap
TTITLE0=I´m a Hustla (Street Mix - Dirty Version)
TTITLE1=I´m a Hustla (Instrumental)
TTITLE2=I´m a Hustla (Acappella - Dirty Version)
TTITLE3=a.m. to p.m. (Dirty Version)
EXTD=
EXTT0=
EXTT1=
EXTT2=
EXTT3=
PLAYORDER=
